<svg width="93" height="93" viewBox="0 0 93 93" fill="none" xmlns="http://www.w3.org/2000/svg">
<g clip-path="url(#clip0_69_129)">
<rect width="93" height="93" fill="white"/>
<path d="M4 41H86V62L4 90V41Z" fill="#2A275F"/>
<path d="M0 93.4799V24.837H34.6047L43.2558 33.4174H86.0745V41.9977H8.65116V84.8995L19.0326 50.3013H93L80.0233 93.4799H0Z" fill="#3F37BE"/>
<rect x="28" y="6" width="54" height="44" fill="#469985"/>
<rect x="30" y="4" width="54" height="46" fill="#41A38B"/>
<rect x="32" width="54" height="50" fill="#46C0A3"/>
<path d="M48.9215 20H47.0641L47.0758 18.6289H48.9215C49.3825 18.6289 49.7711 18.5254 50.0875 18.3184C50.4039 18.1074 50.6422 17.8008 50.8024 17.3984C50.9664 16.9961 51.0485 16.5098 51.0485 15.9395V15.5234C51.0485 15.0859 51.0016 14.7012 50.9079 14.3691C50.818 14.0371 50.6832 13.7578 50.5036 13.5312C50.3239 13.3047 50.1032 13.1348 49.8414 13.0215C49.5797 12.9043 49.2789 12.8457 48.9391 12.8457H47.0289V11.4688H48.9391C49.5094 11.4688 50.0309 11.5664 50.5036 11.7617C50.9801 11.9531 51.3922 12.2285 51.7399 12.5879C52.0875 12.9473 52.3551 13.377 52.5426 13.877C52.734 14.373 52.8297 14.9258 52.8297 15.5352V15.9395C52.8297 16.5449 52.734 17.0977 52.5426 17.5977C52.3551 18.0977 52.0875 18.5273 51.7399 18.8867C51.3961 19.2422 50.984 19.5176 50.5036 19.7129C50.027 19.9043 49.4997 20 48.9215 20ZM48.0602 11.4688V20H46.3024V11.4688H48.0602ZM58.9469 12.9277L56.6266 20H54.7575L57.9274 11.4688H59.1168L58.9469 12.9277ZM60.8747 20L58.5485 12.9277L58.361 11.4688H59.5622L62.7497 20H60.8747ZM60.7692 16.8242V18.2012H56.2633V16.8242H60.7692ZM69.4821 17.7676C69.4821 17.6152 69.4586 17.4785 69.4118 17.3574C69.3688 17.2324 69.2868 17.1191 69.1657 17.0176C69.0446 16.9121 68.8747 16.8086 68.6559 16.707C68.4372 16.6055 68.1539 16.5 67.8063 16.3906C67.4196 16.2656 67.0524 16.125 66.7047 15.9688C66.361 15.8125 66.0563 15.6309 65.7907 15.4238C65.5289 15.2129 65.3219 14.9688 65.1696 14.6914C65.0211 14.4141 64.9469 14.0918 64.9469 13.7246C64.9469 13.3691 65.025 13.0469 65.1813 12.7578C65.3375 12.4648 65.5563 12.2148 65.8375 12.0078C66.1188 11.7969 66.4508 11.6348 66.8336 11.5215C67.2204 11.4082 67.6442 11.3516 68.1051 11.3516C68.734 11.3516 69.2829 11.4648 69.7516 11.6914C70.2204 11.918 70.5836 12.2285 70.8414 12.623C71.1032 13.0176 71.234 13.4688 71.234 13.9766H69.4879C69.4879 13.7266 69.4352 13.5078 69.3297 13.3203C69.2282 13.1289 69.0719 12.9785 68.861 12.8691C68.6539 12.7598 68.3922 12.7051 68.0758 12.7051C67.7711 12.7051 67.5172 12.752 67.3141 12.8457C67.111 12.9355 66.9586 13.0586 66.8571 13.2148C66.7555 13.3672 66.7047 13.5391 66.7047 13.7305C66.7047 13.875 66.7399 14.0059 66.8102 14.123C66.8844 14.2402 66.9938 14.3496 67.1383 14.4512C67.2829 14.5527 67.4606 14.6484 67.6715 14.7383C67.8825 14.8281 68.1266 14.916 68.4039 15.002C68.8688 15.1426 69.277 15.3008 69.6286 15.4766C69.984 15.6523 70.2809 15.8496 70.5192 16.0684C70.7575 16.2871 70.9372 16.5352 71.0582 16.8125C71.1793 17.0898 71.2399 17.4043 71.2399 17.7559C71.2399 18.127 71.1676 18.459 71.0231 18.752C70.8786 19.0449 70.6696 19.293 70.3961 19.4961C70.1227 19.6992 69.7965 19.8535 69.4176 19.959C69.0387 20.0645 68.6149 20.1172 68.1461 20.1172C67.7243 20.1172 67.3082 20.0625 66.8981 19.9531C66.4879 19.8398 66.1149 19.6699 65.7789 19.4434C65.4469 19.2168 65.1813 18.9277 64.9821 18.5762C64.7829 18.2246 64.6832 17.8086 64.6832 17.3281H66.4469C66.4469 17.5938 66.4879 17.8184 66.57 18.002C66.652 18.1855 66.7672 18.334 66.9157 18.4473C67.068 18.5605 67.2477 18.6426 67.4547 18.6934C67.6657 18.7441 67.8961 18.7695 68.1461 18.7695C68.4508 18.7695 68.7008 18.7266 68.8961 18.6406C69.0954 18.5547 69.2418 18.4355 69.3356 18.2832C69.4332 18.1309 69.4821 17.959 69.4821 17.7676Z" fill="white"/>
<path d="M42 28.9285H76.3214" stroke="white" stroke-width="2" stroke-linecap="round"/>
<path d="M42 35.5714H76.3214" stroke="white" stroke-width="2" stroke-linecap="round"/>
</g>
<defs>
<clipPath id="clip0_69_129">
<rect width="93" height="93" fill="white"/>
</clipPath>
</defs>
</svg>
